<?xml version="1.0" standalone="no"?>
<!DOCTYPE svg PUBLIC "-//W3C//DTD SVG 20010904//EN"
 "http://www.w3.org/TR/2001/REC-SVG-20010904/DTD/svg10.dtd">
<svg version="1.0" xmlns="http://www.w3.org/2000/svg"
 width="627.000000pt" height="156.000000pt" viewBox="0 0 627.000000 156.000000"
 preserveAspectRatio="xMidYMid meet">
<metadata>
Created by potrace 1.10, written by Peter Selinger 2001-2011
</metadata>
<g transform="translate(0.000000,156.000000) scale(0.100000,-0.100000)"
fill="#000000" stroke="none">
<path d="M267 1461 c-26 -3 -47 -10 -47 -16 0 -7 996 -12 2957 -15 l2958 -5 0
-670 0 -670 -2984 -3 c-1642 -1 -2988 1 -2992 5 -4 5 -9 290 -12 635 -2 346
-6 631 -10 634 -24 25 -27 -35 -27 -652 l0 -644 26 -10 c16 -7 1100 -10 3024
-10 2955 0 2999 0 3010 19 6 13 10 249 10 696 0 447 -4 683 -10 696 -11 19
-53 19 -2933 17 -1607 0 -2943 -4 -2970 -7z"/>
<path d="M265 1328 c-3 -7 -4 -269 -3 -583 l3 -570 985 0 985 0 0 580 0 580
-983 3 c-781 2 -984 0 -987 -10z m395 -369 c45 -24 100 -84 100 -111 0 -32
-40 -20 -87 27 -42 43 -47 45 -102 45 -53 0 -61 -3 -94 -36 -27 -27 -37 -46
-41 -82 -9 -75 4 -112 53 -149 68 -53 145 -41 201 30 22 27 63 36 75 17 11
-19 -63 -98 -112 -120 -54 -24 -121 -26 -149 -5 -10 8 -26 15 -34 15 -17 0
-47 30 -76 75 -15 23 -19 47 -18 111 0 76 2 84 32 122 64 80 167 105 252 61z
m507 -1 c21 -12 46 -28 55 -36 60 -51 78 -181 34 -250 -82 -129 -226 -149
-329 -46 -35 34 -67 106 -67 149 0 42 32 114 63 143 69 65 171 82 244 40z
m437 7 c15 -8 34 -15 41 -15 21 0 77 -65 91 -106 28 -80 10 -161 -47 -219 -19
-19 -42 -35 -52 -35 -10 0 -26 -4 -36 -9 -10 -6 -55 -11 -100 -12 -63 -2 -85
1 -92 12 -5 8 -9 94 -9 191 0 147 3 179 16 192 21 21 148 22 188 1z m514 -17
l3 -28 -90 0 -91 0 0 -60 0 -60 85 0 c75 0 85 -2 85 -18 0 -33 -22 -42 -97
-42 l-74 0 3 -57 3 -58 89 -5 c89 -5 104 -12 87 -39 -7 -11 -33 -14 -117 -12
-60 1 -112 5 -116 7 -10 6 -11 388 -1 398 4 3 57 5 117 4 l111 -3 3 -27z"/>
<path d="M987 897 c-34 -28 -67 -88 -67 -122 0 -39 34 -98 74 -128 91 -70 226
3 226 122 0 94 -59 151 -153 151 -39 -1 -59 -6 -80 -23z"/>
<path d="M1464 907 c-2 -7 -3 -74 -2 -148 l3 -134 44 -3 c46 -3 112 19 141 48
63 63 48 176 -30 225 -45 28 -146 36 -156 12z"/>
<path d="M2955 956 c-71 -27 -107 -69 -119 -138 -28 -156 89 -269 244 -236 61
13 80 25 121 82 23 30 29 50 29 88 l0 48 -106 0 -105 0 3 -32 c3 -31 5 -33 43
-33 34 0 40 -3 43 -22 3 -17 -5 -27 -31 -39 -42 -20 -74 -14 -116 22 -27 22
-31 32 -31 72 1 52 16 76 68 105 32 18 33 18 84 -7 29 -14 69 -26 90 -26 32 0
38 3 38 21 0 28 -56 78 -106 95 -46 16 -107 16 -149 0z"/>
<path d="M4680 960 c-8 -5 -24 -10 -35 -10 -48 0 -115 -108 -115 -181 0 -44
28 -103 63 -140 44 -44 119 -61 200 -46 43 8 60 18 100 60 l47 50 0 77 c0 57
-4 81 -15 90 -8 7 -15 18 -15 26 0 16 -54 55 -100 71 -42 15 -109 16 -130 3z
m102 -94 c24 -11 40 -27 53 -57 19 -41 19 -42 -2 -78 -26 -46 -58 -63 -106
-57 -58 7 -87 39 -87 95 1 50 18 78 60 98 33 16 42 15 82 -1z"/>
<path d="M5495 958 c-54 -19 -75 -46 -75 -97 1 -45 25 -91 48 -91 5 0 15 -7
22 -15 7 -8 27 -15 46 -15 45 0 94 -41 78 -67 -18 -29 -62 -28 -94 2 -21 20
-36 26 -61 23 -44 -4 -50 -34 -15 -75 34 -40 106 -57 179 -41 68 15 96 46 97
110 0 42 -4 49 -39 77 -21 17 -49 31 -60 31 -12 0 -40 9 -62 21 -31 15 -40 25
-37 42 4 28 63 37 81 12 16 -21 82 -31 102 -15 13 10 11 17 -12 47 -43 57
-123 77 -198 51z"/>
<path d="M2324 936 c-7 -28 1 -335 10 -343 9 -10 228 -5 238 5 5 5 8 25 6 43
l-3 34 -75 5 -75 5 -5 135 -5 135 -42 3 c-38 3 -43 1 -49 -22z"/>
<path d="M2665 951 c-9 -16 -7 -353 2 -361 4 -4 25 -5 46 -3 l37 5 -2 182 -3
181 -37 3 c-20 2 -39 -2 -43 -7z"/>
<path d="M3312 948 c-7 -9 -11 -72 -11 -181 1 -188 2 -192 72 -180 l36 5 3 67
3 66 53 3 c60 3 61 2 65 -77 2 -50 4 -55 28 -62 28 -7 79 -1 79 10 3 171 1
341 -4 350 -10 16 -81 14 -96 -4 -6 -8 -11 -31 -10 -52 4 -63 5 -63 -60 -63
l-59 0 -3 63 -3 62 -41 3 c-25 2 -45 -2 -52 -10z"/>
<path d="M3717 953 c-4 -3 -7 -24 -7 -45 0 -39 3 -42 52 -38 67 4 68 2 68
-145 l0 -133 38 -5 c20 -2 41 -1 46 4 5 4 8 61 8 126 -1 65 3 125 8 133 6 9
26 15 56 15 40 0 48 3 56 25 5 13 6 35 3 47 -5 23 -7 23 -164 23 -87 0 -161
-3 -164 -7z"/>
<path d="M4134 948 c-5 -7 -7 -88 -4 -188 l5 -175 35 2 c19 1 38 2 43 2 4 1 7
27 7 59 0 32 5 63 12 70 16 16 100 16 116 0 7 -7 12 -36 12 -65 0 -60 11 -71
65 -65 l35 4 -2 182 -3 181 -45 0 -45 0 -5 -60 -5 -60 -65 0 -65 0 -5 60 -5
60 -36 3 c-21 2 -39 -2 -45 -10z"/>
<path d="M5025 949 c-14 -21 -13 -198 0 -254 16 -70 35 -91 99 -110 42 -13 60
-13 103 -4 95 22 123 80 123 257 0 113 -6 125 -67 120 l-38 -3 -5 -135 -5
-134 -32 -10 c-25 -7 -38 -5 -57 8 -25 16 -25 20 -28 144 l-3 127 -42 3 c-24
2 -44 -2 -48 -9z"/>
<path d="M5806 944 c-10 -27 -7 -342 4 -349 17 -11 231 -8 242 3 6 6 8 22 4
36 -6 24 -11 25 -79 28 -71 3 -72 3 -75 32 -5 37 10 46 80 46 48 0 58 3 63 20
10 33 -12 49 -72 52 -63 3 -87 24 -67 56 8 12 26 17 65 19 30 1 60 2 67 2 9 1
12 12 10 34 l-3 32 -116 3 c-100 2 -118 0 -123 -14z"/>
</g>
</svg>
