<?xml version="1.0" encoding="iso-8859-1"?>
<!-- Uploaded to: SVG Repo, www.svgrepo.com, Generator: SVG Repo Mixer Tools -->
<svg version="1.1" id="Layer_1" xmlns="http://www.w3.org/2000/svg" xmlns:xlink="http://www.w3.org/1999/xlink" 
	 viewBox="0 0 359.564 359.564" xml:space="preserve">
<rect x="49.487" y="167.111" style="fill:#FFFFFF;" width="260.719" height="172.541"/>
<path style="fill:#194F82;" d="M320.161,147.071h-36.267V101.56C283.895,45.64,238.383,0,182.335,0S80.905,45.64,80.905,101.56
	v45.511H39.466c-5.495,0-9.956,4.461-9.956,9.956v192.582c0,5.495,4.461,9.956,9.956,9.956h280.63c5.495,0,9.956-4.461,9.956-9.956
	V157.156C330.117,151.596,325.656,147.071,320.161,147.071z M310.141,339.653H49.487V167.111h260.719v172.541H310.141z
	 M100.945,101.56c0-44.994,36.525-81.519,81.519-81.519s81.519,36.525,81.519,81.519v45.511H100.945V101.56z"/>
<path style="fill:#56ACE0;" d="M69.462,187.022v12.541h28.574c5.495,0,9.956,4.461,9.956,9.956s-4.461,9.956-9.956,9.956H69.462
	v20.04h8.663c5.495,0,9.956,4.461,9.956,9.956c0,5.495-4.461,9.956-9.956,9.956h-8.663v60.25H290.23V187.022H69.462z"/>
<path style="fill:#FFC10D;" d="M230.432,230.141c0-12.606-10.214-22.885-22.691-23.014c-8.145-0.065-15.58,4.461-20.105,11.313l0,0
	c-3.685,5.624-11.895,5.624-15.58,0c-4.461-6.788-11.895-11.378-20.105-11.313c-12.606,0.129-22.691,10.408-22.691,23.014
	c0,15.386,27.733,46.028,50.554,66.133C202.634,275.911,230.432,245.139,230.432,230.141z"/>
<path style="fill:#194F82;" d="M207.418,187.216c-10.279,0-19.911,3.62-27.604,10.02c-7.628-6.4-17.325-10.02-27.604-10.02
	c-23.725,0-42.99,19.265-42.99,42.99c0,32.194,53.463,78.222,64.194,87.014l0.453,0.388c3.491,2.844,8.469,2.844,11.895-0.065
	l0.453-0.388c10.731-9.051,64.129-55.531,64.129-87.014C250.343,206.481,231.143,187.216,207.418,187.216z M129.196,230.141
	c0-12.606,10.214-22.885,22.691-23.014c8.145-0.065,15.58,4.461,20.105,11.313c3.685,5.624,11.895,5.624,15.58,0l0,0
	c4.461-6.788,11.895-11.378,20.105-11.313c12.606,0.129,22.691,10.408,22.691,23.014c0,14.933-27.798,45.77-50.618,66.133
	C156.929,276.234,129.196,245.592,129.196,230.141z"/>
</svg>