<!DOCTYPE svg PUBLIC "-//W3C//DTD SVG 1.1//EN" "http://www.w3.org/Graphics/SVG/1.1/DTD/svg11.dtd">
<!-- Uploaded to: SVG Repo, www.svgrepo.com, Transformed by: SVG Repo Mixer Tools -->
<svg fill="#000000" width="800px" height="800px" viewBox="0 0 24 24" id="sign-out" data-name="Flat Line" xmlns="http://www.w3.org/2000/svg" class="icon flat-line">
<g id="SVGRepo_bgCarrier" stroke-width="0"/>
<g id="SVGRepo_tracerCarrier" stroke-linecap="round" stroke-linejoin="round"/>
<g id="SVGRepo_iconCarrier">
<path id="secondary" d="M14.56,18.35,13,17.05a1,1,0,0,1-.11-1.41L14.34,14H7V10h7.34L12.93,8.36A1,1,0,0,1,13,7l1.52-1.3A1,1,0,0,1,16,5.76l4.79,5.59a1,1,0,0,1,0,1.3L16,18.24A1,1,0,0,1,14.56,18.35Z" style="fill: #FEE1C7; stroke-width: 2;"/>
<path id="primary" d="M7,20H4a1,1,0,0,1-1-1V5A1,1,0,0,1,4,4H7" style="fill: none; stroke: #000000; stroke-linecap: round; stroke-linejoin: round; stroke-width: 2;"/>
<path id="primary-2" data-name="primary" d="M14.56,18.35,13,17.05a1,1,0,0,1-.11-1.41L14.34,14H7V10h7.34L12.93,8.36A1,1,0,0,1,13,7l1.52-1.3A1,1,0,0,1,16,5.76l4.79,5.59a1,1,0,0,1,0,1.3L16,18.24A1,1,0,0,1,14.56,18.35Z" style="fill: none; stroke: #000000; stroke-linecap: round; stroke-linejoin: round; stroke-width: 2;"/>
</g>
</svg>